<?xml version="1.0" encoding="UTF-8"?>
<svg width="28px" height="20px" viewBox="0 0 28 20" version="1.1" xmlns="http://www.w3.org/2000/svg" xmlns:xlink="http://www.w3.org/1999/xlink">
    <!-- Generator: Sketch 51.1 (57501) - http://www.bohemiancoding.com/sketch -->
    <title>Combined Shape</title>
    <desc>Created with Sketch.</desc>
    <defs></defs>
    <g id="Page-1" stroke="none" stroke-width="1" fill="none" fill-rule="evenodd">
        <path d="M13.8932804,5.51715584 C15.7614305,7.38530596 17.1125033,8.73637882 17.1125033,9.70381371 C17.1125033,10.6712486 15.7614305,12.0056415 13.8932804,13.8737917 C12.825766,14.9579859 11.2745342,16.5425776 9.8734216,16.5425776 C9.27428608,16.5854931 8.68509958,16.3720354 8.25248331,15.9553241 C7.81986703,15.5386129 7.5844998,14.9578313 7.60495359,14.3575091 C7.60495359,13.2566349 8.65578804,12.2725201 9.18954522,11.6887232 C10.1236203,10.7046084 10.6740574,10.2375709 10.6740574,9.70381371 C10.6740574,9.17005653 10.1236203,8.68633908 9.18954522,7.70222429 C8.65578804,7.13510728 7.60495359,6.15099249 7.60495359,5.03343839 C7.60479309,4.46726189 7.83307408,3.92496865 8.23810328,3.52935874 C8.64313248,3.13374882 9.19064619,2.91828909 9.75666222,2.9317695 C10.7574569,2.9317695 11.691532,3.31540748 13.8932804,5.51715584 Z M4.53584982,7.21850684 L4.53584982,7.18514702 C5.49870692,7.07378071 6.44003933,7.52482331 6.95653237,8.34502524 C7.47302542,9.16522716 7.47302542,10.2090404 6.95653237,11.0292424 C6.44003933,11.8494443 5.49870692,12.3004869 4.53584982,12.1891206 C2.9679381,12.1891206 0.682790182,10.7212883 0.682790182,9.70381371 C0.682790182,8.68633908 2.9679381,7.21850684 4.53584982,7.21850684 Z M27.2372098,9.70381371 C27.2372098,11.0048468 25.2189405,13.2065952 23.3507904,15.0747453 C21.149042,17.2764937 19.5144106,19.1946835 17.7963797,19.1946835 C17.1629905,19.2115803 16.5526033,18.9568357 16.1191423,18.4946897 C15.6856812,18.0325437 15.4705181,17.4071061 15.5279117,16.7760963 C15.7513484,15.6569277 16.3376203,14.6426773 17.1959029,13.8904716 C18.1466579,12.9063568 20.5318853,10.8714075 20.5318853,9.70381371 C20.5318853,8.53621988 18.2133775,6.48459072 17.1959029,5.50047592 C16.333668,4.7515239 15.7465563,3.73582072 15.5279117,2.61485118 C15.4705181,1.98384137 15.6856812,1.35840377 16.1191423,0.896257786 C16.5526033,0.434111804 17.1629905,0.179367162 17.7963797,0.196263962 C19.4643709,0.196263962 21.1323621,2.13113373 23.3507904,4.31620218 C25.1522208,6.26775187 27.2372098,8.38610067 27.2372098,9.70381371 Z" id="Combined-Shape" fill="#111336" fill-rule="nonzero"></path>
    </g>
</svg>